<svg viewBox="0 0 320 150" width="320" role="img" aria-label="wall s / attempt across configs"><style>
text { fill:#52514e; font:11px system-ui,-apple-system,'Segoe UI',sans-serif; }
.tick { fill:#898781; font-variant-numeric:tabular-nums; }
.vlab { fill:#0b0b0b; font-weight:600; }
.grid { stroke:#e1e0d9; stroke-width:1; }
.axis { stroke:#c3c2b7; stroke-width:1; }
</style><rect width="100%" height="100%" fill="#fcfcfb"/><text x="46" y="14" class="vlab">wall s / attempt</text><line class="grid" x1="46" y1="120" x2="306" y2="120"/><text class="tick" x="40" y="124" text-anchor="end">0</text><line class="grid" x1="46" y1="73" x2="306" y2="73"/><text class="tick" x="40" y="77" text-anchor="end">79</text><line class="grid" x1="46" y1="26" x2="306" y2="26"/><text class="tick" x="40" y="30" text-anchor="end">157</text><text class="tick" x="46" y="142" text-anchor="middle">0</text><text class="tick" x="78" y="142" text-anchor="middle">1</text><text class="tick" x="111" y="142" text-anchor="middle">2</text><text class="tick" x="144" y="142" text-anchor="middle">3</text><text class="tick" x="176" y="142" text-anchor="middle">4</text><text class="tick" x="208" y="142" text-anchor="middle">5</text><text class="tick" x="241" y="142" text-anchor="middle">6</text><text class="tick" x="274" y="142" text-anchor="middle">7</text><text class="tick" x="306" y="142" text-anchor="middle">8</text><path d="M46.0,89.4 L78.5,94.2 L111.0,90.1 L143.5,95.1 L176.0,90.2 L208.5,89.8 L241.0,66.0 L273.5,92.7 L306.0,87.2" fill="none" stroke="#2a78d6" stroke-width="2" stroke-linejoin="round" stroke-linecap="round"/><circle cx="306.0" cy="87.2" r="4" fill="#2a78d6" stroke="#fcfcfb" stroke-width="2"><title>wall s / attempt · easy: 51, 43, 50, 42, 50, 51, 90, 46, 55</title></circle><path d="M46.0,92.0 L78.5,89.2 L111.0,88.7 L143.5,88.3 L176.0,92.9 L208.5,91.5 L241.0,47.2 L273.5,92.9" fill="none" stroke="#1baf7a" stroke-width="2" stroke-linejoin="round" stroke-linecap="round"/><circle cx="273.5" cy="92.9" r="4" fill="#1baf7a" stroke="#fcfcfb" stroke-width="2"><title>wall s / attempt · medium: 47, 51, 52, 53, 45, 48, 122, 45</title></circle><path d="M46.0,90.7 L78.5,90.7 L111.0,87.5 L143.5,88.7 L176.0,88.3 L208.5,86.3 L241.0,26.0 L273.5,91.8" fill="none" stroke="#eda100" stroke-width="2" stroke-linejoin="round" stroke-linecap="round"/><circle cx="273.5" cy="91.8" r="4" fill="#eda100" stroke="#fcfcfb" stroke-width="2"><title>wall s / attempt · hard: 49, 49, 54, 52, 53, 56, 157, 47</title></circle></svg>