<svg viewBox="0 0 320 150" width="320" role="img" aria-label="cost $ / attempt across configs"><style>
text { fill:#52514e; font:11px system-ui,-apple-system,'Segoe UI',sans-serif; }
.tick { fill:#898781; font-variant-numeric:tabular-nums; }
.vlab { fill:#0b0b0b; font-weight:600; }
.grid { stroke:#e1e0d9; stroke-width:1; }
.axis { stroke:#c3c2b7; stroke-width:1; }
</style><rect width="100%" height="100%" fill="#fcfcfb"/><text x="46" y="14" class="vlab">cost $ / attempt</text><line class="grid" x1="46" y1="120" x2="306" y2="120"/><text class="tick" x="40" y="124" text-anchor="end">0.000</text><line class="grid" x1="46" y1="73" x2="306" y2="73"/><text class="tick" x="40" y="77" text-anchor="end">0.074</text><line class="grid" x1="46" y1="26" x2="306" y2="26"/><text class="tick" x="40" y="30" text-anchor="end">0.148</text><text class="tick" x="46" y="142" text-anchor="middle">0</text><text class="tick" x="65" y="142" text-anchor="middle">1</text><text class="tick" x="83" y="142" text-anchor="middle">2</text><text class="tick" x="102" y="142" text-anchor="middle">3</text><text class="tick" x="120" y="142" text-anchor="middle">4</text><text class="tick" x="139" y="142" text-anchor="middle">5</text><text class="tick" x="157" y="142" text-anchor="middle">6</text><text class="tick" x="176" y="142" text-anchor="middle">7</text><text class="tick" x="195" y="142" text-anchor="middle">8</text><text class="tick" x="213" y="142" text-anchor="middle">9</text><text class="tick" x="232" y="142" text-anchor="middle">10</text><text class="tick" x="250" y="142" text-anchor="middle">11</text><text class="tick" x="269" y="142" text-anchor="middle">12</text><text class="tick" x="287" y="142" text-anchor="middle">13</text><text class="tick" x="306" y="142" text-anchor="middle">14</text><path d="M46.0,70.1 L64.6,88.4 L83.1,91.2 L101.7,89.9 L120.3,93.1 L138.9,89.9 L157.4,88.6 L176.0,92.7 L194.6,79.9 L213.1,93.8 L231.7,86.2 L250.3,93.0 L268.9,86.5 L287.4,63.3 L306.0,77.4" fill="none" stroke="#2a78d6" stroke-width="2" stroke-linejoin="round" stroke-linecap="round"/><circle cx="306.0" cy="77.4" r="4" fill="#2a78d6" stroke="#fcfcfb" stroke-width="2"><title>cost $ / attempt · easy: 0.078, 0.050, 0.045, 0.047, 0.042, 0.047, 0.049, 0.043, 0.063, 0.041, 0.053, 0.043, 0.053, 0.089, 0.067</title></circle><path d="M46.0,49.6 L64.6,80.9 L83.1,80.4 L101.7,80.0 L120.3,82.7 L138.9,80.9 L157.4,84.1 L176.0,83.0 L194.6,63.9 L213.1,49.1 L231.7,69.1 L250.3,81.4 L268.9,85.5 L287.4,55.4 L306.0,63.3" fill="none" stroke="#1baf7a" stroke-width="2" stroke-linejoin="round" stroke-linecap="round"/><circle cx="306.0" cy="63.3" r="4" fill="#1baf7a" stroke="#fcfcfb" stroke-width="2"><title>cost $ / attempt · medium: 0.111, 0.062, 0.062, 0.063, 0.059, 0.061, 0.056, 0.058, 0.088, 0.112, 0.080, 0.061, 0.054, 0.102, 0.089</title></circle><path d="M46.0,26.0 L64.6,80.7 L83.1,82.0 L101.7,81.1 L120.3,84.1 L138.9,77.1 L157.4,80.0 L176.0,81.8 L194.6,62.7 L213.1,34.0 L231.7,67.0 L250.3,82.0 L268.9,82.5 L287.4,41.1 L306.0,62.5" fill="none" stroke="#eda100" stroke-width="2" stroke-linejoin="round" stroke-linecap="round"/><circle cx="306.0" cy="62.5" r="4" fill="#eda100" stroke="#fcfcfb" stroke-width="2"><title>cost $ / attempt · hard: 0.148, 0.062, 0.060, 0.061, 0.057, 0.067, 0.063, 0.060, 0.090, 0.135, 0.083, 0.060, 0.059, 0.124, 0.090</title></circle></svg>