<svg viewBox="0 0 320 150" width="320" role="img" aria-label="output tokens / attempt across configs"><style>
text { fill:#52514e; font:11px system-ui,-apple-system,'Segoe UI',sans-serif; }
.tick { fill:#898781; font-variant-numeric:tabular-nums; }
.vlab { fill:#0b0b0b; font-weight:600; }
.grid { stroke:#e1e0d9; stroke-width:1; }
.axis { stroke:#c3c2b7; stroke-width:1; }
</style><rect width="100%" height="100%" fill="#fcfcfb"/><text x="46" y="14" class="vlab">output tokens / attempt</text><line class="grid" x1="46" y1="120" x2="306" y2="120"/><text class="tick" x="40" y="124" text-anchor="end">0.0k</text><line class="grid" x1="46" y1="73" x2="306" y2="73"/><text class="tick" x="40" y="77" text-anchor="end">8.1k</text><line class="grid" x1="46" y1="26" x2="306" y2="26"/><text class="tick" x="40" y="30" text-anchor="end">16.1k</text><text class="tick" x="46" y="142" text-anchor="middle">0</text><text class="tick" x="65" y="142" text-anchor="middle">1</text><text class="tick" x="83" y="142" text-anchor="middle">2</text><text class="tick" x="102" y="142" text-anchor="middle">3</text><text class="tick" x="120" y="142" text-anchor="middle">4</text><text class="tick" x="139" y="142" text-anchor="middle">5</text><text class="tick" x="157" y="142" text-anchor="middle">6</text><text class="tick" x="176" y="142" text-anchor="middle">7</text><text class="tick" x="195" y="142" text-anchor="middle">8</text><text class="tick" x="213" y="142" text-anchor="middle">9</text><text class="tick" x="232" y="142" text-anchor="middle">10</text><text class="tick" x="250" y="142" text-anchor="middle">11</text><text class="tick" x="269" y="142" text-anchor="middle">12</text><text class="tick" x="287" y="142" text-anchor="middle">13</text><text class="tick" x="306" y="142" text-anchor="middle">14</text><path d="M46.0,77.3 L64.6,109.7 L83.1,110.1 L101.7,109.8 L120.3,110.1 L138.9,108.7 L157.4,110.3 L176.0,110.8 L194.6,95.0 L213.1,111.0 L231.7,102.0 L250.3,110.8 L268.9,109.4 L287.4,100.6 L306.0,104.2" fill="none" stroke="#2a78d6" stroke-width="2" stroke-linejoin="round" stroke-linecap="round"/><circle cx="306.0" cy="104.2" r="4" fill="#2a78d6" stroke="#fcfcfb" stroke-width="2"><title>output tokens / attempt · easy: 7.3k, 1.8k, 1.7k, 1.7k, 1.7k, 1.9k, 1.7k, 1.6k, 4.3k, 1.5k, 3.1k, 1.6k, 1.8k, 3.3k, 2.7k</title></circle><path d="M46.0,49.4 L64.6,105.6 L83.1,102.8 L101.7,103.2 L120.3,104.1 L138.9,104.5 L157.4,105.5 L176.0,104.6 L194.6,70.2 L213.1,94.1 L231.7,85.6 L250.3,103.4 L268.9,105.4 L287.4,96.8 L306.0,93.7" fill="none" stroke="#1baf7a" stroke-width="2" stroke-linejoin="round" stroke-linecap="round"/><circle cx="306.0" cy="93.7" r="4" fill="#1baf7a" stroke="#fcfcfb" stroke-width="2"><title>output tokens / attempt · medium: 12.1k, 2.5k, 3.0k, 2.9k, 2.7k, 2.7k, 2.5k, 2.6k, 8.6k, 4.4k, 5.9k, 2.8k, 2.5k, 4.0k, 4.5k</title></circle><path d="M46.0,26.0 L64.6,103.0 L83.1,103.0 L101.7,101.4 L120.3,102.7 L138.9,100.0 L157.4,101.0 L176.0,103.4 L194.6,69.1 L213.1,94.8 L231.7,72.5 L250.3,102.3 L268.9,101.9 L287.4,96.0 L306.0,90.4" fill="none" stroke="#eda100" stroke-width="2" stroke-linejoin="round" stroke-linecap="round"/><circle cx="306.0" cy="90.4" r="4" fill="#eda100" stroke="#fcfcfb" stroke-width="2"><title>output tokens / attempt · hard: 16.1k, 2.9k, 2.9k, 3.2k, 3.0k, 3.4k, 3.3k, 2.8k, 8.7k, 4.3k, 8.2k, 3.0k, 3.1k, 4.1k, 5.1k</title></circle></svg>