<svg viewBox="0 0 320 150" width="320" role="img" aria-label="wall s / attempt across configs"><style>
text { fill:#52514e; font:11px system-ui,-apple-system,'Segoe UI',sans-serif; }
.tick { fill:#898781; font-variant-numeric:tabular-nums; }
.vlab { fill:#0b0b0b; font-weight:600; }
.grid { stroke:#e1e0d9; stroke-width:1; }
.axis { stroke:#c3c2b7; stroke-width:1; }
</style><rect width="100%" height="100%" fill="#fcfcfb"/><text x="46" y="14" class="vlab">wall s / attempt</text><line class="grid" x1="46" y1="120" x2="306" y2="120"/><text class="tick" x="40" y="124" text-anchor="end">0</text><line class="grid" x1="46" y1="73" x2="306" y2="73"/><text class="tick" x="40" y="77" text-anchor="end">79</text><line class="grid" x1="46" y1="26" x2="306" y2="26"/><text class="tick" x="40" y="30" text-anchor="end">157</text><text class="tick" x="46" y="142" text-anchor="middle">0</text><text class="tick" x="65" y="142" text-anchor="middle">1</text><text class="tick" x="83" y="142" text-anchor="middle">2</text><text class="tick" x="102" y="142" text-anchor="middle">3</text><text class="tick" x="120" y="142" text-anchor="middle">4</text><text class="tick" x="139" y="142" text-anchor="middle">5</text><text class="tick" x="157" y="142" text-anchor="middle">6</text><text class="tick" x="176" y="142" text-anchor="middle">7</text><text class="tick" x="195" y="142" text-anchor="middle">8</text><text class="tick" x="213" y="142" text-anchor="middle">9</text><text class="tick" x="232" y="142" text-anchor="middle">10</text><text class="tick" x="250" y="142" text-anchor="middle">11</text><text class="tick" x="269" y="142" text-anchor="middle">12</text><text class="tick" x="287" y="142" text-anchor="middle">13</text><text class="tick" x="306" y="142" text-anchor="middle">14</text><path d="M46.0,66.0 L64.6,89.4 L83.1,94.2 L101.7,90.1 L120.3,95.1 L138.9,90.2 L157.4,89.8 L176.0,92.7 L194.6,79.8 L213.1,98.1 L231.7,86.8 L250.3,93.6 L268.9,90.6 L287.4,94.8 L306.0,84.8" fill="none" stroke="#2a78d6" stroke-width="2" stroke-linejoin="round" stroke-linecap="round"/><circle cx="306.0" cy="84.8" r="4" fill="#2a78d6" stroke="#fcfcfb" stroke-width="2"><title>wall s / attempt · easy: 90, 51, 43, 50, 42, 50, 51, 46, 67, 37, 56, 44, 49, 42, 59</title></circle><path d="M46.0,47.2 L64.6,92.0 L83.1,89.2 L101.7,88.7 L120.3,88.3 L138.9,92.9 L157.4,91.5 L176.0,92.9 L194.6,68.9 L213.1,88.2 L231.7,75.8 L250.3,92.7 L268.9,94.8 L287.4,92.1 L306.0,77.3" fill="none" stroke="#1baf7a" stroke-width="2" stroke-linejoin="round" stroke-linecap="round"/><circle cx="306.0" cy="77.3" r="4" fill="#1baf7a" stroke="#fcfcfb" stroke-width="2"><title>wall s / attempt · medium: 122, 47, 51, 52, 53, 45, 48, 45, 85, 53, 74, 46, 42, 47, 71</title></circle><path d="M46.0,26.0 L64.6,90.7 L83.1,90.7 L101.7,87.5 L120.3,88.7 L138.9,88.3 L157.4,86.3 L176.0,91.8 L194.6,70.0 L213.1,66.4 L231.7,73.3 L250.3,91.3 L268.9,91.4 L287.4,64.4 L306.0,76.1" fill="none" stroke="#eda100" stroke-width="2" stroke-linejoin="round" stroke-linecap="round"/><circle cx="306.0" cy="76.1" r="4" fill="#eda100" stroke="#fcfcfb" stroke-width="2"><title>wall s / attempt · hard: 157, 49, 49, 54, 52, 53, 56, 47, 84, 90, 78, 48, 48, 93, 74</title></circle></svg>