<svg viewBox="0 0 720 582" width="100%" role="img" aria-label="pass@1 per config and difficulty bucket"><style>
text { fill:#52514e; font:11px system-ui,-apple-system,'Segoe UI',sans-serif; }
.tick { fill:#898781; font-variant-numeric:tabular-nums; }
.vlab { fill:#0b0b0b; font-weight:600; }
.grid { stroke:#e1e0d9; stroke-width:1; }
.axis { stroke:#c3c2b7; stroke-width:1; }
</style><rect width="100%" height="100%" fill="#fcfcfb"/><line class="grid" x1="150" y1="12" x2="150" y2="562"/><text class="tick" x="150" y="576" text-anchor="middle">0</text><line class="grid" x1="278" y1="12" x2="278" y2="562"/><text class="tick" x="278" y="576" text-anchor="middle">0.25</text><line class="grid" x1="405" y1="12" x2="405" y2="562"/><text class="tick" x="405" y="576" text-anchor="middle">0.5</text><line class="grid" x1="532" y1="12" x2="532" y2="562"/><text class="tick" x="532" y="576" text-anchor="middle">0.75</text><line class="grid" x1="660" y1="12" x2="660" y2="562"/><text class="tick" x="660" y="576" text-anchor="middle">1</text><line class="axis" x1="150" y1="12" x2="150" y2="562"/><text x="142" y="45.0" text-anchor="end" class="vlab">session</text><path d="M150.0,18.0 h238.2 q4.0,0 4.0,4.0 v6.0 q0,4.0 -4.0,4.0 h-238.2 z" fill="#2a78d6"><title>session · easy: pass@1 0.475 (19/40)</title></path><text x="398.25" y="29" class="tick">0.47</text><path d="M150.0,34.0 h161.8 q4.0,0 4.0,4.0 v6.0 q0,4.0 -4.0,4.0 h-161.8 z" fill="#1baf7a"><title>session · medium: pass@1 0.325 (13/40)</title></path><text x="321.75" y="45" class="tick">0.33</text><path d="M150.0,50.0 h161.8 q4.0,0 4.0,4.0 v6.0 q0,4.0 -4.0,4.0 h-161.8 z" fill="#eda100"><title>session · hard: pass@1 0.325 (13/40)</title></path><text x="321.75" y="61" class="tick">0.33</text><text x="142" y="105.0" text-anchor="end" class="vlab">session_try</text><path d="M150.0,78.0 h327.5 q4.0,0 4.0,4.0 v6.0 q0,4.0 -4.0,4.0 h-327.5 z" fill="#2a78d6"><title>session_try · easy: pass@1 0.650 (26/40)</title></path><text x="487.5" y="89" class="tick">0.65</text><path d="M150.0,94.0 h187.2 q4.0,0 4.0,4.0 v6.0 q0,4.0 -4.0,4.0 h-187.2 z" fill="#1baf7a"><title>session_try · medium: pass@1 0.375 (15/40)</title></path><text x="347.25" y="105" class="tick">0.38</text><path d="M150.0,110.0 h187.2 q4.0,0 4.0,4.0 v6.0 q0,4.0 -4.0,4.0 h-187.2 z" fill="#eda100"><title>session_try · hard: pass@1 0.375 (15/40)</title></path><text x="347.25" y="121" class="tick">0.38</text><text x="142" y="165.0" text-anchor="end" class="vlab">session_try_compact</text><path d="M150.0,138.0 h314.8 q4.0,0 4.0,4.0 v6.0 q0,4.0 -4.0,4.0 h-314.8 z" fill="#2a78d6"><title>session_try_compact · easy: pass@1 0.625 (25/40)</title></path><text x="474.75" y="149" class="tick">0.62</text><path d="M150.0,154.0 h174.5 q4.0,0 4.0,4.0 v6.0 q0,4.0 -4.0,4.0 h-174.5 z" fill="#1baf7a"><title>session_try_compact · medium: pass@1 0.350 (14/40)</title></path><text x="334.5" y="165" class="tick">0.35</text><path d="M150.0,170.0 h174.5 q4.0,0 4.0,4.0 v6.0 q0,4.0 -4.0,4.0 h-174.5 z" fill="#eda100"><title>session_try_compact · hard: pass@1 0.350 (14/40)</title></path><text x="334.5" y="181" class="tick">0.35</text><text x="142" y="225.0" text-anchor="end" class="vlab">session_try_search</text><path d="M150.0,198.0 h302.0 q4.0,0 4.0,4.0 v6.0 q0,4.0 -4.0,4.0 h-302.0 z" fill="#2a78d6"><title>session_try_search · easy: pass@1 0.600 (24/40)</title></path><text x="462.0" y="209" class="tick">0.60</text><path d="M150.0,214.0 h174.5 q4.0,0 4.0,4.0 v6.0 q0,4.0 -4.0,4.0 h-174.5 z" fill="#1baf7a"><title>session_try_search · medium: pass@1 0.350 (14/40)</title></path><text x="334.5" y="225" class="tick">0.35</text><path d="M150.0,230.0 h200.0 q4.0,0 4.0,4.0 v6.0 q0,4.0 -4.0,4.0 h-200.0 z" fill="#eda100"><title>session_try_search · hard: pass@1 0.400 (16/40)</title></path><text x="360.0" y="241" class="tick">0.40</text><text x="142" y="285.0" text-anchor="end" class="vlab">session_try_hints</text><path d="M150.0,258.0 h302.0 q4.0,0 4.0,4.0 v6.0 q0,4.0 -4.0,4.0 h-302.0 z" fill="#2a78d6"><title>session_try_hints · easy: pass@1 0.600 (24/40)</title></path><text x="462.0" y="269" class="tick">0.60</text><path d="M150.0,274.0 h238.2 q4.0,0 4.0,4.0 v6.0 q0,4.0 -4.0,4.0 h-238.2 z" fill="#1baf7a"><title>session_try_hints · medium: pass@1 0.475 (19/40)</title></path><text x="398.25" y="285" class="tick">0.47</text><path d="M150.0,290.0 h187.2 q4.0,0 4.0,4.0 v6.0 q0,4.0 -4.0,4.0 h-187.2 z" fill="#eda100"><title>session_try_hints · hard: pass@1 0.375 (15/40)</title></path><text x="347.25" y="301" class="tick">0.38</text><text x="142" y="345.0" text-anchor="end" class="vlab">session_try_hints_auto</text><path d="M150.0,318.0 h327.5 q4.0,0 4.0,4.0 v6.0 q0,4.0 -4.0,4.0 h-327.5 z" fill="#2a78d6"><title>session_try_hints_auto · easy: pass@1 0.650 (26/40)</title></path><text x="487.5" y="329" class="tick">0.65</text><path d="M150.0,334.0 h276.5 q4.0,0 4.0,4.0 v6.0 q0,4.0 -4.0,4.0 h-276.5 z" fill="#1baf7a"><title>session_try_hints_auto · medium: pass@1 0.550 (22/40)</title></path><text x="436.5" y="345" class="tick">0.55</text><path d="M150.0,350.0 h212.8 q4.0,0 4.0,4.0 v6.0 q0,4.0 -4.0,4.0 h-212.8 z" fill="#eda100"><title>session_try_hints_auto · hard: pass@1 0.425 (17/40)</title></path><text x="372.75" y="361" class="tick">0.42</text><text x="142" y="405.0" text-anchor="end" class="vlab">baseline</text><path d="M150.0,378.0 h219.1 q4.0,0 4.0,4.0 v6.0 q0,4.0 -4.0,4.0 h-219.1 z" fill="#2a78d6"><title>baseline · easy: pass@1 0.438 (35/80)</title></path><text x="379.125" y="389" class="tick">0.44</text><path d="M150.0,394.0 h123.5 q4.0,0 4.0,4.0 v6.0 q0,4.0 -4.0,4.0 h-123.5 z" fill="#1baf7a"><title>baseline · medium: pass@1 0.250 (20/80)</title></path><text x="283.5" y="405" class="tick">0.25</text><path d="M150.0,410.0 h149.0 q4.0,0 4.0,4.0 v6.0 q0,4.0 -4.0,4.0 h-149.0 z" fill="#eda100"><title>baseline · hard: pass@1 0.300 (24/80)</title></path><text x="309.0" y="421" class="tick">0.30</text><text x="142" y="465.0" text-anchor="end" class="vlab">session_try_hints_auto_sugg</text><path d="M150.0,438.0 h353.0 q4.0,0 4.0,4.0 v6.0 q0,4.0 -4.0,4.0 h-353.0 z" fill="#2a78d6"><title>session_try_hints_auto_sugg · easy: pass@1 0.700 (56/80)</title></path><text x="513.0" y="449" class="tick">0.70</text><path d="M150.0,454.0 h263.8 q4.0,0 4.0,4.0 v6.0 q0,4.0 -4.0,4.0 h-263.8 z" fill="#1baf7a"><title>session_try_hints_auto_sugg · medium: pass@1 0.525 (42/80)</title></path><text x="423.75" y="465" class="tick">0.53</text><path d="M150.0,470.0 h212.8 q4.0,0 4.0,4.0 v6.0 q0,4.0 -4.0,4.0 h-212.8 z" fill="#eda100"><title>session_try_hints_auto_sugg · hard: pass@1 0.425 (34/80)</title></path><text x="372.75" y="481" class="tick">0.42</text><text x="142" y="525.0" text-anchor="end" class="vlab">unified</text><path d="M150.0,498.0 h183.9 q4.0,0 4.0,4.0 v6.0 q0,4.0 -4.0,4.0 h-183.9 z" fill="#2a78d6"><title>unified · easy: pass@1 0.368 (7/19)</title></path><text x="343.89473684210526" y="509" class="tick">0.37</text></svg>